<?xml version="1.0" encoding="UTF-8"?><svg id="Capa_2" xmlns="http://www.w3.org/2000/svg" viewBox="0 0 374.78 393.96"><defs><style>.cls-1{fill:#bf7969;}</style></defs><g id="Capa_1-2"><path class="cls-1" d="M369.68,37.09c-1.97-4.32-7.63-12.08-10.79-15.62C342.57,3.17,316.91-1.96,292.47.63c-4.79.51-20.04,1.13-15.47,9.25,4.29,7.62,15.41-1.2,21.76-2.95,44.6-12.27,50.65,37.68,34.01,67.61-5.44,9.79-12.07,17.26-19.65,22.92-5.28,3.95-11.03,7.01-17.15,9.35-10.04,3.84-21.09,5.75-32.8,6.44-2.57.15-5.18.25-7.81.29-1.1.02-2.2,0-3.3,0-5.36,0-10.69-.25-15.99-.67-35.67-2.89-69.72-16.81-105.18-21.57-6.68-.9-13.23-.26-19.38.73-13.92,2.24-25.97,8.76-34.47,22.6-19.09,31.07,1.13,67.02,32.78,78.55,6.72,2.45,27.4,7.47,30.59-1.11,3.74-10.06-15.82-3.19-19.44-3.05-40.62,1.6-38.28-49.74-8.2-68.19,22.44-13.76,47.13-15.39,71.54-10.94,6.01,1.1,11.36,3.07,16.2,4.18,12.82,2.93,27.57,6.15,42.94,8.58-39.38,39.51-62.06,93.48-104.91,130.13-24.63,21.07-51.2,33.58-83.83,22.05-32.29-11.41-60.83-52.84-19.29-73.19,5.91-2.9,20.09-3.65,18.26-12.2-1.95-9.12-13.79.52-17.72,3.31C15.94,207,.12,227.84,0,252.36c-.02,4.75.88,14.31,2.26,18.85,1.32,4.35,5.63,12.48,8.26,16.19,54.72,77.25,132.23-18.6,169.47-70.52,16.85-23.49,41.69-69.05,69.14-93.36,57.95,8.33,132.9,3.56,125.09-68.83-.49-4.52-2.65-13.47-4.54-17.6Z"/><path class="cls-1" d="M308.5,187.91c40.99-11.58,49.82,24.1,46.92,56.88-3.3,37.46-29.66,88.11-56.83,113.94-51.94,49.38-93.46,27.9-81.33-43.41,7.02-41.24,48.52-115.34,91.23-127.41ZM297.44,211.87c-34.96,9.05-65.96,55.31-70.08,89.6-5.93,49.27,37.47,62.78,73.88,36.04,27.08-19.89,63.78-84.24,40.15-115.21-10.48-13.74-28.26-14.49-43.95-10.43Z"/><path class="cls-1" d="M99.09,330.83c.04,4.59.42,2.7,2.96,3.14,15.8,2.78,32.97,4.61,49.05,4.23,4.8-1.99,25.11-42.7,31-50.39,1.58-2.06,2.53-4.37,5.63-4.12l-19.65,54.48c15.88-.28,28.09-7.25,28.69-24.12l8.71,1.39c-5.49,14.63-14.39,28.14-29.31,34.51-4.51,1.92-11.28,1.54-14.01,4.57-4.73,5.23-8.09,31.62-14.66,36.67-5,3.85-22.02,4.1-23.77-1.83-1.31-4.43,23.43-35.94,19.57-39.49-16.43-.94-36.48-13.34-52.29-13.9-4.75-.17-32.02,12.25-25.92-4.55,2.68-7.37,16.12-2.22,22.49-2.68,43.1-3.1,85.07-71.61,102.28-106.3,4.61-9.29,5.68-23.8,18.09-24.75,26.75-2.04,2.37,32.92-3.6,42.29-23.83,37.38-62.95,75.63-105.25,90.84Z"/></g></svg>