<?xml version='1.0' encoding='utf-8'?>
<svg xmlns="http://www.w3.org/2000/svg" id="Capa_2" viewBox="0 0 398.6 278.55"><defs><style>.cls-1{fill:#bf7969;}</style></defs><g id="Capa_1-2"><path class="cls-1" d="M157.96,278.5c2.77-.15,8.32-1.01,10.92-1.98,2.49-.92,7.09-3.72,9.16-5.38,43.16-34.62-15.46-76.5-47.06-96.42-13.58-8.56-39.01-20.63-54.5-34.81,15.29-14.53,40.97-27.03,54.58-35.82,31.38-20.25,89.56-62.75,46.03-96.92-2.09-1.64-6.72-4.39-9.22-5.28-2.61-.94-8.17-1.74-10.94-1.86-14.32-.63-26.93,8.01-35.83,19.29-1.74,2.21-7.71,8.85-2.44,10.25,4.94,1.31,5.79-6.94,7.65-10.31,13.07-23.67,36.44-5.82,42.17,13.36,5.8,19.38-2.27,34.54-15.27,48.31-22.52,23.85-54.47,35.55-78.62,57.2-.15-.15-.3-.29-.45-.44-.01-.1-.02-.2-.04-.31-.98-8.66-2.36-16.98-3.66-24.26-.51-2.86-1.51-6.03-1.97-9.58-.78-5.91-.95-11.81-.28-17.6.95-8.3,3.61-16.36,8.72-23.85,11.63-17.03,41.67-16.92,39.57,6.74-.19,2.11-4.76,13.33,1.22,11.43,5.1-1.62,2.76-13.83,1.53-17.83-5.82-18.81-26.23-31.64-44.92-21.39-8.32,4.56-12.47,11.41-14.18,19.47-.75,3.56-1.31,7.36-.98,11.29.05.62.12,1.23.19,1.85-6.86-6.01-16.48-8.86-29.77-6.62-2.62.44-7.76,2.02-10.11,3.26-2.45,1.3-6.78,4.87-8.74,6.84C.62,87.32-1.48,102.47.88,116.64c.46,2.78,1.36,11.65,5.94,8.7,4.3-2.77-1.24-8.95-2.48-12.59-8.71-25.59,20.22-30.87,38.26-22.2,5.9,2.83,10.49,6.44,14.06,10.67,2.49,2.95,4.48,6.19,6.06,9.68,2.59,5.72,4.09,12.11,4.9,18.92.18,1.5.33,3.01.44,4.55.05.64.08,1.29.12,1.93.18,3.13.23,6.24.16,9.35-.03,1.37-.09,2.74-.17,4.11-.74,6.79-2.17,13.17-4.69,18.9-1.54,3.51-3.5,6.77-5.95,9.75-3.52,4.26-8.07,7.92-13.94,10.81-17.95,8.85-46.94,3.89-38.5-21.8,1.2-3.66,6.67-9.89,2.35-12.62-4.61-2.91-5.41,5.98-5.85,8.76-2.21,14.2.05,29.32,10.26,39.38,1.98,1.95,6.35,5.47,8.81,6.75,2.36,1.22,7.52,2.74,10.14,3.15,12.69,2,21.99-.58,28.71-6.09-.03.34-.07.67-.09,1.01-.29,3.93.31,7.73,1.1,11.28,1.79,8.04,6.02,14.84,14.39,19.32,18.8,10.06,39.06-3,44.69-21.86,1.19-4.01,3.4-16.25-1.71-17.81-6-1.83-1.31,9.34-1.1,11.45,2.35,23.64-27.69,24.07-39.5,7.16-4.88-6.98-7.6-14.49-8.77-22.24-.95-6.26-.88-12.68-.1-19.12.43-3.55,1.4-6.73,1.87-9.6,1.26-7.58,2.62-16.3,3.51-25.35.28.25.57.49.85.73,24.32,21.12,56.12,32.49,78.74,55.94,13.15,13.63,21.38,28.7,15.79,48.14-5.53,19.24-28.71,37.33-42.03,13.81-1.9-3.35-2.83-11.59-7.76-10.23-5.25,1.46.78,8.03,2.55,10.22,9.01,11.19,21.72,19.69,36.03,18.91Z" stroke="#efebe0" stroke-linecap="round" stroke-linejoin="round" stroke-width="0.25" vector-effect="non-scaling-stroke" /><path class="cls-1" d="M240.64,278.5c-2.77-.15-8.32-1.01-10.92-1.98-2.49-.92-7.09-3.72-9.16-5.38-43.16-34.62,15.46-76.5,47.06-96.42,13.58-8.56,39.01-20.63,54.5-34.81-15.29-14.53-40.97-27.03-54.58-35.82-31.38-20.25-89.56-62.75-46.03-96.92,2.09-1.64,6.72-4.39,9.22-5.28,2.61-.94,8.17-1.74,10.94-1.86,14.32-.63,26.93,8.01,35.83,19.29,1.74,2.21,7.71,8.85,2.44,10.25-4.94,1.31-5.79-6.94-7.65-10.31-13.07-23.67-36.44-5.82-42.17,13.36-5.8,19.38,2.27,34.54,15.27,48.31,22.52,23.85,54.47,35.55,78.62,57.2.15-.15.3-.29.45-.44.01-.1.02-.2.04-.31.98-8.66,2.36-16.98,3.66-24.26.51-2.86,1.51-6.03,1.97-9.58.78-5.91.95-11.81.28-17.6-.95-8.3-3.61-16.36-8.72-23.85-11.63-17.03-41.67-16.92-39.57,6.74.19,2.11,4.76,13.33-1.22,11.43-5.1-1.62-2.76-13.83-1.53-17.83,5.82-18.81,26.23-31.64,44.92-21.39,8.32,4.56,12.47,11.41,14.18,19.47.75,3.56,1.31,7.36.98,11.29-.05.62-.12,1.23-.19,1.85,6.86-6.01,16.48-8.86,29.77-6.62,2.62.44,7.76,2.02,10.11,3.26,2.45,1.3,6.78,4.87,8.74,6.84,10.1,10.16,12.2,25.31,9.84,39.48-.46,2.78-1.36,11.65-5.94,8.7-4.3-2.77,1.24-8.95,2.48-12.59,8.71-25.59-20.22-30.87-38.26-22.2-5.9,2.83-10.49,6.44-14.06,10.67-2.49,2.95-4.48,6.19-6.06,9.68-2.59,5.72-4.09,12.11-4.9,18.92-.18,1.5-.33,3.01-.44,4.55-.05.64-.08,1.29-.12,1.93-.18,3.13-.23,6.24-.16,9.35.03,1.37.09,2.74.17,4.11.74,6.79,2.17,13.17,4.69,18.9,1.54,3.51,3.5,6.77,5.95,9.75,3.52,4.26,8.07,7.92,13.94,10.81,17.95,8.85,46.94,3.89,38.5-21.8-1.2-3.66-6.67-9.89-2.35-12.62,4.61-2.91,5.41,5.98,5.85,8.76,2.21,14.2-.05,29.32-10.26,39.38-1.98,1.95-6.35,5.47-8.81,6.75-2.36,1.22-7.52,2.74-10.14,3.15-12.69,2-21.99-.58-28.71-6.09.03.34.07.67.09,1.01.29,3.93-.31,7.73-1.1,11.28-1.79,8.04-6.02,14.84-14.39,19.32-18.8,10.06-39.06-3-44.69-21.86-1.19-4.01-3.4-16.25,1.71-17.81,6-1.83,1.31,9.34,1.1,11.45-2.35,23.64,27.69,24.07,39.5,7.16,4.88-6.98,7.6-14.49,8.77-22.24.95-6.26.88-12.68.1-19.12-.43-3.55-1.4-6.73-1.87-9.6-1.26-7.58-2.62-16.3-3.51-25.35-.28.25-.57.49-.85.73-24.32,21.12-56.12,32.49-78.74,55.94-13.15,13.63-21.38,28.7-15.79,48.14,5.53,19.24,28.71,37.33,42.03,13.81,1.9-3.35,2.83-11.59,7.76-10.23,5.25,1.46-.78,8.03-2.55,10.22-9.01,11.19-21.72,19.69-36.03,18.91Z" stroke="#efebe0" stroke-linecap="round" stroke-linejoin="round" stroke-width="0.25" vector-effect="non-scaling-stroke" /></g></svg>