<?xml version="1.0" encoding="UTF-8"?><svg id="Capa_2" xmlns="http://www.w3.org/2000/svg" viewBox="0 0 609.66 609.37"><defs><style>.cls-1{fill:#cad4ee;}.cls-2{fill:#d9a05b;}.cls-3{fill:#bf7969;}.cls-4{fill:#a2a183;}.cls-5{fill:#f0e8f4;}</style></defs><g id="Capa_1-2"><rect class="cls-1" x="110.73" y="276.93" width="55.47" height="55.47"/><rect class="cls-1" x="55.37" y="276.93" width="55.47" height="55.47"/><rect class="cls-2" x="221.47" y="276.93" width="55.47" height="55.47"/><rect class="cls-1" y="276.93" width="55.47" height="55.47"/><rect class="cls-2" x="276.84" y="276.93" width="55.47" height="55.47"/><rect class="cls-3" x="166.1" y="276.93" width="55.47" height="55.47"/><rect class="cls-5" x="110.73" y="221.55" width="55.47" height="55.47"/><rect class="cls-3" x="55.37" y="221.55" width="55.47" height="55.47"/><polygon class="cls-4" points="276.94 221.55 276.94 277.01 221.47 277.01 276.94 221.55"/><rect class="cls-3" y="221.55" width="55.47" height="55.47"/><rect class="cls-2" x="276.84" y="221.55" width="55.47" height="55.47"/><polygon class="cls-4" points="221.57 221.55 221.57 277.01 166.1 221.55 221.57 221.55"/><rect class="cls-1" x="110.73" y="166.16" width="55.47" height="55.47"/><rect class="cls-2" x="55.37" y="166.16" width="55.47" height="55.47"/><polygon class="cls-4" points="276.94 221.63 221.47 221.63 221.47 166.16 276.94 221.63"/><rect class="cls-3" y="166.16" width="55.47" height="55.47"/><rect class="cls-3" x="276.84" y="166.16" width="55.47" height="55.47"/><rect class="cls-4" x="166.1" y="166.16" width="55.47" height="55.47"/><rect class="cls-1" x="110.73" y="110.77" width="55.47" height="55.47"/><rect class="cls-3" x="55.37" y="110.77" width="55.47" height="55.47"/><rect class="cls-5" x="221.47" y="110.77" width="55.47" height="55.47"/><rect class="cls-3" y="110.77" width="55.47" height="55.47"/><rect class="cls-1" x="276.84" y="110.77" width="55.47" height="55.47"/><rect class="cls-1" x="166.1" y="110.77" width="55.47" height="55.47"/><rect class="cls-3" x="110.73" y="55.39" width="55.47" height="55.47"/><rect class="cls-2" x="55.37" y="55.39" width="55.47" height="55.47"/><rect class="cls-3" x="221.47" y="55.39" width="55.47" height="55.47"/><rect class="cls-1" y="55.39" width="55.47" height="55.47"/><rect class="cls-1" x="276.84" y="55.39" width="55.47" height="55.47"/><rect class="cls-2" x="166.1" y="55.39" width="55.47" height="55.47"/><rect class="cls-3" x="110.73" width="55.47" height="55.47"/><rect class="cls-1" x="55.37" width="55.47" height="55.47"/><rect class="cls-3" x="221.47" width="55.47" height="55.47"/><rect class="cls-1" width="55.47" height="55.47"/><rect class="cls-1" x="276.84" width="55.47" height="55.47"/><rect class="cls-3" x="166.1" width="55.47" height="55.47"/><rect class="cls-1" x="498.74" y="553.84" width="55.47" height="55.47"/><rect class="cls-1" x="554.11" y="553.84" width="55.47" height="55.47"/><rect class="cls-3" x="388.01" y="553.84" width="55.47" height="55.47"/><rect class="cls-3" x="332.64" y="553.84" width="55.47" height="55.47"/><rect class="cls-3" x="443.38" y="553.84" width="55.47" height="55.47"/><rect class="cls-2" x="498.74" y="498.46" width="55.47" height="55.47"/><rect class="cls-1" x="554.11" y="498.46" width="55.47" height="55.47"/><rect class="cls-2" x="388.01" y="498.46" width="55.47" height="55.47"/><rect class="cls-3" x="332.64" y="498.46" width="55.47" height="55.47"/><rect class="cls-3" x="443.38" y="498.46" width="55.47" height="55.47"/><rect class="cls-3" x="498.74" y="443.07" width="55.47" height="55.47"/><rect class="cls-3" x="554.11" y="443.07" width="55.47" height="55.47"/><rect class="cls-1" x="388.01" y="443.07" width="55.47" height="55.47"/><rect class="cls-5" x="332.64" y="443.07" width="55.47" height="55.47"/><rect class="cls-1" x="443.38" y="443.07" width="55.47" height="55.47"/><rect class="cls-2" x="498.74" y="387.68" width="55.47" height="55.47"/><rect class="cls-3" x="554.11" y="387.68" width="55.47" height="55.47"/><rect class="cls-4" x="388.01" y="387.68" width="55.47" height="55.47"/><polygon class="cls-4" points="388.11 443.15 388.11 387.68 332.64 387.68 388.11 443.15"/><rect class="cls-1" x="443.38" y="387.68" width="55.47" height="55.47"/><rect class="cls-3" x="498.74" y="332.3" width="55.47" height="55.47"/><rect class="cls-3" x="554.11" y="332.3" width="55.47" height="55.47"/><polygon class="cls-4" points="388.01 332.3 388.01 387.77 443.48 387.77 388.01 332.3"/><polygon class="cls-4" points="332.64 387.77 388.11 332.3 332.64 332.3 332.64 387.77"/><rect class="cls-5" x="443.38" y="332.3" width="55.47" height="55.47"/><rect class="cls-2" x="276.97" y="331.64" width="55.47" height="55.47"/><polygon class="cls-4" points="221.59 331.64 277.05 331.64 277.05 387.1 221.59 331.64"/><polygon class="cls-4" points="221.67 331.64 221.67 387.1 166.2 387.1 221.67 331.64"/><rect class="cls-5" x="110.81" y="331.64" width="55.47" height="55.47"/><rect class="cls-3" x="55.43" y="331.64" width="55.47" height="55.47"/><rect class="cls-3" x=".04" y="331.64" width="55.47" height="55.47"/><rect class="cls-1" x="276.97" y="553.9" width="55.47" height="55.47"/><rect class="cls-1" x="276.97" y="498.54" width="55.47" height="55.47"/><rect class="cls-3" x="276.97" y="387.8" width="55.47" height="55.47"/><rect class="cls-1" x="276.97" y="443.17" width="55.47" height="55.47"/><rect class="cls-3" x="221.59" y="553.9" width="55.47" height="55.47"/><rect class="cls-3" x="221.59" y="498.54" width="55.47" height="55.47"/><polygon class="cls-4" points="221.59 443.27 277.05 387.8 221.59 387.8 221.59 443.27"/><rect class="cls-5" x="221.59" y="443.17" width="55.47" height="55.47"/><rect class="cls-3" x="166.2" y="553.9" width="55.47" height="55.47"/><rect class="cls-2" x="166.2" y="498.54" width="55.47" height="55.47"/><rect class="cls-4" x="166.2" y="387.8" width="55.47" height="55.47"/><rect class="cls-1" x="166.2" y="443.17" width="55.47" height="55.47"/><rect class="cls-3" x="110.81" y="553.9" width="55.47" height="55.47"/><rect class="cls-3" x="110.81" y="498.54" width="55.47" height="55.47"/><rect class="cls-1" x="110.81" y="387.8" width="55.47" height="55.47"/><rect class="cls-1" x="110.81" y="443.17" width="55.47" height="55.47"/><rect class="cls-1" x="55.43" y="553.9" width="55.47" height="55.47"/><rect class="cls-2" x="55.43" y="498.54" width="55.47" height="55.47"/><rect class="cls-2" x="55.43" y="387.8" width="55.47" height="55.47"/><rect class="cls-3" x="55.43" y="443.17" width="55.47" height="55.47"/><rect class="cls-1" x=".04" y="553.9" width="55.47" height="55.47"/><rect class="cls-1" x=".04" y="498.54" width="55.47" height="55.47"/><rect class="cls-3" x=".04" y="387.8" width="55.47" height="55.47"/><rect class="cls-3" x=".04" y="443.17" width="55.47" height="55.47"/><rect class="cls-3" x="554.19" y="111.49" width="55.47" height="55.47"/><rect class="cls-1" x="554.19" y="56.13" width="55.47" height="55.47"/><rect class="cls-3" x="554.19" y="222.23" width="55.47" height="55.47"/><rect class="cls-1" x="554.19" y=".76" width="55.47" height="55.47"/><rect class="cls-1" x="554.19" y="277.59" width="55.47" height="55.47"/><rect class="cls-3" x="554.19" y="166.86" width="55.47" height="55.47"/><rect class="cls-3" x="498.8" y="111.49" width="55.47" height="55.47"/><rect class="cls-2" x="498.8" y="56.13" width="55.47" height="55.47"/><rect class="cls-3" x="498.8" y="222.23" width="55.47" height="55.47"/><rect class="cls-1" x="498.8" y=".76" width="55.47" height="55.47"/><rect class="cls-1" x="498.8" y="277.59" width="55.47" height="55.47"/><rect class="cls-2" x="498.8" y="166.86" width="55.47" height="55.47"/><rect class="cls-1" x="443.42" y="111.49" width="55.47" height="55.47"/><rect class="cls-3" x="443.42" y="56.13" width="55.47" height="55.47"/><rect class="cls-5" x="443.42" y="222.23" width="55.47" height="55.47"/><rect class="cls-3" x="443.42" y=".76" width="55.47" height="55.47"/><rect class="cls-1" x="443.42" y="277.59" width="55.47" height="55.47"/><rect class="cls-1" x="443.42" y="166.86" width="55.47" height="55.47"/><rect class="cls-1" x="388.03" y="111.49" width="55.47" height="55.47"/><rect class="cls-2" x="388.03" y="56.13" width="55.47" height="55.47"/><polygon class="cls-4" points="388.03 277.69 443.5 222.23 388.03 222.23 388.03 277.69"/><rect class="cls-3" x="388.03" y=".76" width="55.47" height="55.47"/><rect class="cls-3" x="388.03" y="277.59" width="55.47" height="55.47"/><rect class="cls-4" x="388.03" y="166.86" width="55.47" height="55.47"/><rect class="cls-5" x="332.64" y="111.49" width="55.47" height="55.47"/><rect class="cls-3" x="332.64" y="56.13" width="55.47" height="55.47"/><polygon class="cls-4" points="332.64 277.69 388.11 277.69 332.64 222.23 332.64 277.69"/><rect class="cls-3" x="332.64" y=".76" width="55.47" height="55.47"/><rect class="cls-2" x="332.64" y="277.59" width="55.47" height="55.47"/><polygon class="cls-4" points="332.64 222.33 388.11 222.33 388.11 166.86 332.64 222.33"/></g></svg>